<?xml version="1.0" encoding="utf-8"?>
<!-- Generator: Adobe Illustrator 20.1.0, SVG Export Plug-In . SVG Version: 6.00 Build 0)  -->
<svg version="1.1" id="Livello_1" xmlns="http://www.w3.org/2000/svg" xmlns:xlink="http://www.w3.org/1999/xlink" x="0px" y="0px"
	 viewBox="0 0 163.963 101.023" enable-background="new 0 0 163.963 101.023" xml:space="preserve">
<g>
	<g>
		<g>
			<path fill="#FFFFFF" d="M6.39,65.443c-0.014-0.015-0.019-0.029-0.038-0.041c-0.021-0.03-0.06-0.053-0.086-0.082L6.39,65.443z
				 M26.497,65.228c-0.036,0.03-0.06,0.05-0.086,0.076c-0.015,0.016-0.028,0.03-0.037,0.045L26.497,65.228z M86.699,65.381
				c-0.041,0.034-0.077,0.072-0.115,0.097c-0.021,0.023-0.036,0.048-0.053,0.063L86.699,65.381z M80.113,8.972
				c0.025-0.032,0.058-0.053,0.088-0.083c0.015-0.011,0.024-0.028,0.038-0.04L80.113,8.972z M127.778,65.467
				c-0.017-0.024-0.045-0.051-0.072-0.079c-0.032-0.039-0.075-0.068-0.11-0.101L127.778,65.467z M135.759,4.159
				c0,0.003,0.009,0.014,0.009,0.014c0.01,0,0.019,0.011,0.023,0.011L135.759,4.159z M159.354,3.82
				c-2.652-2.463-6.089-3.815-9.736-3.815c-3.788,0-7.459,1.568-10.104,4.3c-0.68,0.692-1.287,1.441-1.805,2.249
				c-0.546-0.857-1.197-1.654-1.941-2.382c-2.638-2.648-6.278-4.168-10.095-4.168c-3.8,0-7.479,1.557-10.115,4.28
				c-2.633,2.674-4.107,6.357-4.07,10.017v1.088L97.681,7.236c-2.473-1.494-5.075-2.25-7.792-2.25c-3.594,0-7.031,1.389-9.688,3.902
				c-2.811,2.627-4.423,6.318-4.458,10.191c-0.088,5.042,2.491,9.769,6.846,12.411l5.443,3.206l-5.292,3.135
				c-1.533,0.868-2.85,2.021-3.923,3.355c-0.698-0.113-1.418-0.181-2.125-0.181h-9.734V14.347c0.05-3.778-1.468-7.476-4.175-10.155
				C60.144,1.53,56.504,0.005,52.687,0c-2.965,0.005-5.874,0.99-8.265,2.729c-3.019-1.764-6.447-2.724-10.05-2.724H2.067
				l0.005,55.116c-0.051,3.866,1.508,7.599,4.28,10.28c2.643,2.581,6.246,4.054,9.963,4.054h0.097c3.731,0.005,7.371-1.512,10-4.152
				c2.695-2.672,4.216-6.381,4.171-10.071v-3.714h3.841c1.39,0,2.757-0.151,4.098-0.422v8.36l-0.004,9.999h38.211
				c3.699,0,7.186-1.417,9.856-3.978c0.441-0.407,0.832-0.853,1.212-1.319c0.698,0.106,1.39,0.176,2.112,0.174l0.022,0.002
				c2.672-0.002,5.26-0.741,7.691-2.208l0,0l23.363-13.761l-0.153,0.082c0.95-0.534,1.806-1.191,2.599-1.908v8.556
				c-0.056,3.852,1.509,7.599,4.276,10.291c2.633,2.589,6.254,4.068,9.976,4.068l0.082,0.005c3.671,0,7.282-1.49,9.911-4.083
				c2.755-2.681,4.309-6.409,4.265-10.149l0.009-15.647l9.787-12.438l2.152-2.727V14.409C163.921,10.349,162.274,6.506,159.354,3.82
				z M159.301,3.758c0.018,0.019,0.039,0.04,0.053,0.062c0.018,0.014,0.033,0.025,0.046,0.038L159.301,3.758z"/>
			<g>
				<path fill="#AF0B2B" d="M16.36,59.452c-1.133,0.009-2.238-0.426-3.033-1.222l0,0c-0.808-0.783-1.27-1.872-1.258-2.997l0,0V10.01
					h22.302c2.731-0.012,5.209,1.042,7.154,3.019l0,0c1.977,1.962,3.01,4.455,2.997,7.205l0,0v11.13
					c0.012,2.751-1.02,5.231-2.975,7.165l0,0c-1.94,1.961-4.423,2.999-7.177,2.987l0,0H20.582v13.718
					c0.014,1.117-0.432,2.206-1.229,2.987l0,0c-0.779,0.789-1.845,1.236-2.942,1.236l0,0C16.389,59.458,16.378,59.458,16.36,59.452
					L16.36,59.452z M34.372,33.07c0.496-0.008,0.811-0.137,1.209-0.508l0,0c0.36-0.377,0.495-0.678,0.498-1.199l0,0l0.006-11.13
					c-0.009-0.527-0.144-0.826-0.505-1.205l0,0c-0.397-0.368-0.712-0.499-1.209-0.501l0,0H20.582V33.07H34.372L34.372,33.07z"/>
				<path fill="#AF0B2B" d="M76.692,59.452l-28.164,0.005l-0.003-45.223c-0.018-1.114,0.454-2.192,1.248-2.968l0,0
					c0.781-0.803,1.862-1.267,2.97-1.256l0,0c1.11-0.011,2.19,0.453,2.974,1.259l0,0c0.787,0.773,1.266,1.852,1.242,2.965l0,0V51.01
					l19.733,0.007c1.11-0.018,2.202,0.431,2.996,1.212l0,0c0.831,0.773,1.304,1.872,1.29,3.005l0,0
					c0.014,1.127-0.459,2.232-1.29,3.005l0,0c-0.789,0.774-1.861,1.214-2.96,1.219l0,0C76.714,59.452,76.706,59.458,76.692,59.452
					L76.692,59.452"/>
				<path fill="#AF0B2B" d="M87.043,53.139c-0.848-0.776-1.307-1.905-1.289-3.061l0,0c-0.045-1.453,0.698-2.862,1.952-3.559l0,0
					l20.002-11.853L87.667,22.862c-1.239-0.751-1.949-2.147-1.913-3.606l0,0c-0.018-1.161,0.441-2.293,1.289-3.077l0,0
					c0.782-0.746,1.818-1.197,2.887-1.189l0,0c0.904,0,1.762,0.318,2.589,0.811l0,0l23.38,13.812
					c1.445,0.814,2.382,2.289,2.341,3.914l0,0v2.298c0.041,1.626-0.895,3.102-2.341,3.918l0,0L92.542,53.512
					c-0.832,0.512-1.704,0.82-2.612,0.82l0,0c-0.013,0-0.019,0-0.022,0l0,0C88.842,54.332,87.819,53.885,87.043,53.139
					L87.043,53.139z"/>
				<path fill="#AF0B2B" d="M134.69,58.23c-0.816-0.774-1.275-1.88-1.257-2.997l0,0v-19.1l-11.94-15.11v-6.72
					c-0.009-1.134,0.43-2.239,1.224-3.03l0,0c0.776-0.814,1.869-1.274,3.002-1.263l0,0c1.128-0.014,2.235,0.463,3.023,1.275l0,0
					c0.814,0.804,1.276,1.906,1.267,3.029l0,0v3.668l7.649,9.824l7.78-9.824l0.004-3.682c-0.018-1.129,0.441-2.22,1.239-3.015l0,0
					c0.776-0.808,1.854-1.286,2.979-1.275l0,0c1.077-0.011,2.129,0.422,2.912,1.161l0,0c0.868,0.784,1.323,1.946,1.307,3.128l0,0
					v6.648L141.94,36.108v19.113c0.018,1.129-0.444,2.226-1.256,3.007l0,0c-0.776,0.782-1.856,1.238-2.97,1.224l0,0
					c-0.009,0.005-0.024,0-0.032,0l0,0C136.562,59.452,135.479,59.02,134.69,58.23L134.69,58.23z"/>
			</g>
		</g>
		<g>
			<path fill="#FFFFFF" d="M2.264,86.151H1.502C0.572,86.151,0,85.579,0,84.65c0-0.858,0.644-1.502,1.502-1.502h0.763v-1.764
				c0-2.526,1.502-3.908,3.599-3.908c1.215,0,2.383,0.357,2.383,1.549c0,1.001-0.453,1.454-1.406,1.454
				c-0.572,0-1.144,0-1.144,1.263v1.406h1.072c1.025,0,1.74,0.405,1.74,1.502c0,1.072-0.739,1.501-1.74,1.501H5.697v7.914
				c0,1.144-0.715,1.907-1.716,1.907c-1.001,0-1.716-0.763-1.716-1.907V86.151z"/>
			<path fill="#FFFFFF" d="M11.605,90.633c0.239,1.692,1.645,2.479,3.241,2.479c1.764,0,2.979-1.383,3.885-1.383
				c0.739,0,1.406,0.739,1.406,1.477c0,1.478-3.051,2.908-5.601,2.908c-3.861,0-6.435-2.812-6.435-6.602
				c0-3.48,2.526-6.65,6.149-6.65c3.718,0,6.173,3.385,6.173,6.245c0,1.024-0.453,1.525-1.502,1.525H11.605z M16.992,88.344
				c-0.191-1.502-1.144-2.622-2.741-2.622c-1.525,0-2.55,1.168-2.717,2.622H16.992z"/>
			<path fill="#FFFFFF" d="M29.168,86.866c-0.643,0-1.954-1.001-3.075-1.001c-0.619,0-1.168,0.285-1.168,0.953
				c0,1.596,5.959,1.358,5.959,5.267c0,2.288-1.931,4.028-4.886,4.028c-1.93,0-4.79-1.096-4.79-2.646
				c0-0.524,0.524-1.525,1.478-1.525c1.335,0,1.931,1.168,3.551,1.168c1.049,0,1.358-0.334,1.358-0.978
				c0-1.573-5.959-1.335-5.959-5.267c0-2.383,1.931-4.004,4.647-4.004c1.692,0,4.29,0.786,4.29,2.479
				C30.574,86.127,29.978,86.866,29.168,86.866z"/>
			<path fill="#FFFFFF" d="M33.241,86.151h-0.763c-0.929,0-1.501-0.572-1.501-1.501c0-0.858,0.643-1.502,1.501-1.502h0.763v-2.049
				c0-1.144,0.715-1.907,1.716-1.907c1.001,0,1.716,0.763,1.716,1.907v2.049h0.977c0.882,0,1.644,0.405,1.644,1.502
				c0,1.072-0.763,1.501-1.644,1.501h-0.977v7.914c0,1.144-0.715,1.907-1.716,1.907c-1.001,0-1.716-0.763-1.716-1.907V86.151z"/>
			<path fill="#FFFFFF" d="M43.368,79.74c0,1.072-0.858,1.978-1.93,1.978c-1.025,0-1.931-0.93-1.931-1.978
				c0-0.977,0.906-1.882,1.931-1.882C42.462,77.857,43.368,78.739,43.368,79.74z M39.722,84.912c0-1.144,0.715-1.907,1.716-1.907
				c1.001,0,1.716,0.763,1.716,1.907v9.152c0,1.144-0.715,1.907-1.716,1.907c-1.001,0-1.716-0.763-1.716-1.907V84.912z"/>
			<path fill="#FFFFFF" d="M44.582,85.675c-0.167-0.429-0.215-0.692-0.215-1.001c0-1.096,0.858-1.668,1.788-1.668
				c0.953,0,1.358,0.691,1.525,1.215l2.193,6.769h0.048l2.193-6.769c0.167-0.524,0.572-1.215,1.525-1.215
				c0.929,0,1.787,0.572,1.787,1.668c0,0.31-0.047,0.572-0.214,1.001l-3.456,8.866c-0.334,0.882-0.691,1.431-1.859,1.431
				c-1.168,0-1.525-0.548-1.859-1.431L44.582,85.675z"/>
			<path fill="#FFFFFF" d="M68.413,93.731c0,0.882,0,2.241-1.645,2.241c-1.001,0-1.406-0.548-1.645-1.454
				c-0.882,1.049-1.954,1.597-3.265,1.597c-3.218,0-5.672-2.741-5.672-6.602c0-3.766,2.526-6.65,5.672-6.65
				c1.263,0,2.502,0.5,3.265,1.573c0.095-0.834,0.811-1.429,1.645-1.429c1.645,0,1.645,1.358,1.645,2.24V93.731z M62.336,92.968
				c1.788,0,2.646-1.811,2.646-3.456c0-1.645-0.834-3.504-2.646-3.504c-1.883,0-2.717,1.859-2.717,3.504
				C59.618,91.157,60.476,92.968,62.336,92.968z"/>
			<path fill="#FFFFFF" d="M70.626,79.383c0-1.144,0.715-1.907,1.716-1.907c1.001,0,1.716,0.763,1.716,1.907v14.682
				c0,1.144-0.715,1.907-1.716,1.907c-1.001,0-1.716-0.763-1.716-1.907V79.383z"/>
			<path fill="#FFFFFF" d="M85.259,78.524c0-0.715,0.31-1.096,0.857-1.096c0.548,0,0.859,0.381,0.859,1.096v16.351
				c0,0.715-0.31,1.097-0.859,1.097c-0.548,0-0.857-0.381-0.857-1.097v-0.786h-0.072c-0.763,1.239-2.026,1.883-3.504,1.883
				c-3.646,0-5.458-2.908-5.458-6.483c0-3.194,1.74-6.483,5.41-6.483c1.478,0,2.574,0.619,3.552,1.882h0.072V78.524z M81.683,94.541
				c2.669,0,3.576-2.74,3.576-5.052c0-2.312-0.906-5.054-3.576-5.054c-2.598,0-3.599,2.741-3.599,5.054
				C78.084,91.8,79.014,94.541,81.683,94.541z"/>
			<path fill="#FFFFFF" d="M91.643,90.251c0.072,2.216,1.573,4.289,3.766,4.289c2.717,0,3.432-1.954,4.242-1.954
				c0.477,0,0.811,0.167,0.811,0.834c0,0.763-1.978,2.55-4.934,2.55c-4.051,0-5.744-3.289-5.744-6.483
				c0-3.194,1.883-6.483,5.458-6.483c3.575,0,5.411,3.003,5.411,6.196c0,0.453-0.143,1.049-1.168,1.049H91.643z M98.793,88.82
				c-0.071-2.121-1.263-4.386-3.575-4.386c-2.312,0-3.504,2.264-3.575,4.386H98.793z"/>
			<path fill="#FFFFFF" d="M104.82,94.875c0,0.715-0.31,1.097-0.859,1.097c-0.548,0-0.857-0.381-0.857-1.097V78.524
				c0-0.715,0.31-1.096,0.857-1.096c0.548,0,0.859,0.381,0.859,1.096V94.875z"/>
			<path fill="#FFFFFF" d="M119.405,94.827c0,4.123-2.693,6.196-6.602,6.196c-1.406,0-5.411-0.691-5.411-2.573
				c0-0.644,0.715-1.502,1.383-1.502c1.096,0,2.312,1.072,4.29,1.072c1.668,0,2.907-0.977,2.907-2.717v-0.81h-0.047
				c-0.715,1.049-1.883,1.621-3.457,1.621c-3.598,0-5.291-3.17-5.291-6.578c0-3.456,2.193-6.674,5.648-6.674
				c1.168,0,2.502,0.525,3.146,1.573c0.215-0.905,0.763-1.429,1.716-1.429c1.001,0,1.716,0.763,1.716,1.907V94.827z M113.279,86.008
				c-1.788,0-2.669,1.859-2.669,3.456c0,1.835,0.882,3.504,2.669,3.504c1.835,0,2.693-1.716,2.693-3.385
				C115.973,87.915,115.163,86.008,113.279,86.008z"/>
			<path fill="#FFFFFF" d="M125.264,79.74c0,1.072-0.858,1.978-1.93,1.978c-1.025,0-1.931-0.93-1.931-1.978
				c0-0.977,0.906-1.882,1.931-1.882C124.359,77.857,125.264,78.739,125.264,79.74z M121.618,84.912
				c0-1.144,0.715-1.907,1.716-1.907c1.001,0,1.716,0.763,1.716,1.907v9.152c0,1.144-0.715,1.907-1.716,1.907
				c-1.001,0-1.716-0.763-1.716-1.907V84.912z"/>
			<path fill="#FFFFFF" d="M139.062,89.512c0,3.575-2.455,6.602-6.149,6.602c-3.694,0-6.15-3.027-6.15-6.602
				c0-3.48,2.527-6.65,6.15-6.65C136.536,82.862,139.062,86.032,139.062,89.512z M130.196,89.512c0,1.644,0.858,3.456,2.717,3.456
				c1.859,0,2.717-1.811,2.717-3.456c0-1.645-0.834-3.504-2.717-3.504C131.03,86.008,130.196,87.867,130.196,89.512z"/>
			<path fill="#FFFFFF" d="M149.356,86.676c-0.858,0-1.621-0.667-2.717-0.667c-1.954,0-2.884,1.74-2.884,3.504
				c0,1.692,1.025,3.456,2.884,3.456c0.858,0,2.145-0.715,2.55-0.715c0.811,0,1.477,0.692,1.477,1.502
				c0,1.764-2.955,2.36-4.195,2.36c-3.694,0-6.149-3.027-6.149-6.602c0-3.48,2.526-6.65,6.149-6.65c1.359,0,4.195,0.5,4.195,2.169
				C150.666,85.746,150.166,86.676,149.356,86.676z"/>
			<path fill="#FFFFFF" d="M163.963,89.512c0,3.575-2.455,6.602-6.15,6.602c-3.694,0-6.149-3.027-6.149-6.602
				c0-3.48,2.526-6.65,6.149-6.65C161.437,82.862,163.963,86.032,163.963,89.512z M155.097,89.512c0,1.644,0.858,3.456,2.717,3.456
				c1.859,0,2.717-1.811,2.717-3.456c0-1.645-0.834-3.504-2.717-3.504C155.931,86.008,155.097,87.867,155.097,89.512z"/>
		</g>
	</g>
</g>
</svg>
