<?xml version="1.0" encoding="UTF-8" standalone="no"?>
<svg xmlns:inkscape="http://www.inkscape.org/namespaces/inkscape" xmlns:sodipodi="http://sodipodi.sourceforge.net/DTD/sodipodi-0.dtd" xmlns="http://www.w3.org/2000/svg" xmlns:svg="http://www.w3.org/2000/svg" width="241.688" height="38.083" viewBox="0 0 241.688 38.083" version="1.1" id="svg67" sodipodi:docname="lucca_comics_and_games_brand_logo.svg" inkscape:version="1.1 (c68e22c387, 2021-05-23)">
  <defs id="defs71"></defs>
  <g inkscape:groupmode="layer" id="layer1" inkscape:label="Logo">
    <g id="Raggruppa_200" data-name="Raggruppa 200" transform="matrix(0.99126814,0,0,0.99126814,-295.86204,-57.327003)" style="stroke-width:1.0088">
      <g id="Raggruppa_43" data-name="Raggruppa 43" transform="translate(407.518,65.096)" style="stroke-width:1.0088">
        <path id="Tracciato_13" data-name="Tracciato 13" d="m -221.937,91.525 a 3.753,3.753 0 0 1 0.254,1.349 3.875,3.875 0 0 1 -3.913,3.835 3.88,3.88 0 0 1 -3.9,-3.579 15.4,15.4 0 0 0 -6.9,6.944 3.862,3.862 0 0 1 3.514,3.813 3.875,3.875 0 0 1 -3.913,3.835 3.985,3.985 0 0 1 -1.157,-0.171 15.334,15.334 0 0 0 15.317,14.627 15.334,15.334 0 0 0 15.335,-15.336 15.333,15.333 0 0 0 -14.639,-15.317 m -3.659,16.2 a 3.876,3.876 0 0 1 -3.913,-3.835 3.873,3.873 0 0 1 3.913,-3.833 3.872,3.872 0 0 1 3.913,3.833 3.875,3.875 0 0 1 -3.913,3.835" transform="translate(271.865,-91.507)" fill="#ff0001" style="stroke-width:1.03609"></path>
        <path id="Tracciato_14" data-name="Tracciato 14" d="m -162.451,108.242 a 9.785,9.785 0 0 1 -9.774,-9.774 9.745,9.745 0 0 1 2.848,-6.889 15.472,15.472 0 0 0 -1.577,-0.08 15.334,15.334 0 0 0 -15.335,15.334 15.335,15.335 0 0 0 15.335,15.335 15.334,15.334 0 0 0 15.334,-15.335 c 0,-0.447 -0.023,-0.887 -0.06,-1.325 a 9.739,9.739 0 0 1 -6.77,2.734" transform="translate(254.489,-91.498)" fill="#ff0001" style="stroke-width:1.03609"></path>
        <path id="Tracciato_15" data-name="Tracciato 15" d="m -152.089,103.673 a 3.4,3.4 0 0 0 3.393,-3.393 3.4,3.4 0 0 0 -3.393,-3.394 3.4,3.4 0 0 0 -3.393,3.394 3.4,3.4 0 0 0 3.393,3.393" transform="translate(244.127,-93.31)" fill="#ff0001" style="stroke-width:1.03609"></path>
        <path id="Tracciato_16" data-name="Tracciato 16" d="m -95.384,124.521 a 3.833,3.833 0 0 1 -4.06,-1.1 c -0.019,0.113 -0.04,0.226 -0.07,0.339 a 3.833,3.833 0 0 1 -3.138,2.805 c 0.086,0.078 0.169,0.158 0.248,0.244 a 3.849,3.849 0 0 1 0.38,4.653 15.349,15.349 0 0 0 2.869,-1.753 2.052,2.052 0 0 1 -0.977,-2.287 2.064,2.064 0 0 1 2.534,-1.452 2.1,2.1 0 0 1 1.255,0.916 15.251,15.251 0 0 0 1.648,-2.674 3.737,3.737 0 0 1 -0.689,0.31" transform="translate(226.357,-102.235)" fill="#ff0001" style="stroke-width:1.03609"></path>
        <path id="Tracciato_17" data-name="Tracciato 17" d="m -118.926,121.353 a 3.874,3.874 0 0 1 0.3,-5.469 3.956,3.956 0 0 1 2.008,-0.984 3.824,3.824 0 0 1 -1.218,-3.849 3.872,3.872 0 0 1 4.752,-2.724 3.95,3.95 0 0 1 1.915,1.146 3.826,3.826 0 0 1 2.565,-3.114 3.853,3.853 0 0 1 4.6,1.886 c 0.043,-0.466 0.068,-0.936 0.068,-1.412 a 15.334,15.334 0 0 0 -15.331,-15.333 15.335,15.335 0 0 0 -15.333,15.333 15.335,15.335 0 0 0 15.335,15.335 c 0.44,0 0.875,-0.023 1.305,-0.06 a 3.744,3.744 0 0 1 -0.964,-0.755" transform="translate(237.103,-91.498)" fill="#ff0001" style="stroke-width:1.03609"></path>
        <path id="Tracciato_18" data-name="Tracciato 18" d="m -259.9,101.024 a 15.692,15.692 0 0 0 -3.2,-4.92 15.139,15.139 0 0 0 -4.8,-3.341 14.828,14.828 0 0 0 -5.908,-1.264 14.586,14.586 0 0 0 -5.917,1.132 15.109,15.109 0 0 0 -4.818,3.235 15.323,15.323 0 0 0 -3.264,4.848 15.3,15.3 0 0 0 -1.237,5.951 15.392,15.392 0 0 0 1.1,6.008 15.84,15.84 0 0 0 1.288,2.521 l -2.394,6.974 6.946,-2.384 a 16.082,16.082 0 0 0 2.061,1.12 14.544,14.544 0 0 0 5.891,1.263 14.79,14.79 0 0 0 5.934,-1.132 15.224,15.224 0 0 0 4.876,-3.217 15.516,15.516 0 0 0 3.311,-4.833 15.032,15.032 0 0 0 1.259,-5.985 14.962,14.962 0 0 0 -1.132,-5.977" transform="translate(289.055,-91.498)" fill="#ff0001" style="stroke-width:1.03609"></path>
      </g>
      <g id="Raggruppa_44" data-name="Raggruppa 44" transform="translate(299,58)" style="stroke-width:1.0088">
        <path id="Tracciato_1" data-name="Tracciato 1" d="m -278.574,67.688 a 0.4,0.4 0 0 1 0.157,0.163 0.259,0.259 0 0 1 -0.019,0.238 l -0.607,1.033 a 0.332,0.332 0 0 1 -0.188,0.144 0.321,0.321 0 0 1 -0.225,-0.063 3.225,3.225 0 0 0 -0.842,-0.438 2.932,2.932 0 0 0 -0.961,-0.156 2.808,2.808 0 0 0 -1.171,0.241 2.868,2.868 0 0 0 -0.92,0.654 2.961,2.961 0 0 0 -0.6,0.97 3.287,3.287 0 0 0 -0.216,1.2 3.241,3.241 0 0 0 0.216,1.186 2.981,2.981 0 0 0 0.6,0.968 2.837,2.837 0 0 0 0.92,0.651 2.837,2.837 0 0 0 1.171,0.238 3.013,3.013 0 0 0 0.97,-0.156 3.066,3.066 0 0 0 0.845,-0.438 0.373,0.373 0 0 1 0.229,-0.069 0.305,0.305 0 0 1 0.185,0.138 l 0.619,1.045 a 0.244,0.244 0 0 1 0.019,0.231 0.4,0.4 0 0 1 -0.156,0.157 4.83,4.83 0 0 1 -1.268,0.61 4.709,4.709 0 0 1 -1.43,0.216 4.728,4.728 0 0 1 -1.274,-0.17 4.65,4.65 0 0 1 -1.142,-0.482 4.777,4.777 0 0 1 -0.968,-0.747 4.864,4.864 0 0 1 -0.748,-0.964 4.665,4.665 0 0 1 -0.482,-1.139 4.742,4.742 0 0 1 -0.169,-1.274 4.742,4.742 0 0 1 0.169,-1.274 4.782,4.782 0 0 1 0.482,-1.145 4.866,4.866 0 0 1 0.748,-0.973 4.68,4.68 0 0 1 0.968,-0.748 4.9,4.9 0 0 1 1.142,-0.482 4.672,4.672 0 0 1 1.274,-0.172 4.723,4.723 0 0 1 1.414,0.21 4.863,4.863 0 0 1 1.258,0.6" transform="translate(286.029,-38.374)" fill="#ffffff" style="stroke-width:1.03609"></path>
        <path id="Tracciato_2" data-name="Tracciato 2" d="m -267.579,76.715 a 3.134,3.134 0 0 1 0.247,-1.242 3.1,3.1 0 0 1 0.676,-1 3.187,3.187 0 0 1 1,-0.667 3.137,3.137 0 0 1 1.239,-0.244 3.1,3.1 0 0 1 1.23,0.244 3.2,3.2 0 0 1 1,0.667 3.112,3.112 0 0 1 0.676,1 3.142,3.142 0 0 1 0.247,1.242 3.14,3.14 0 0 1 -0.247,1.243 3.148,3.148 0 0 1 -0.676,1 3.231,3.231 0 0 1 -1,0.673 3.068,3.068 0 0 1 -1.23,0.247 3.105,3.105 0 0 1 -1.239,-0.247 3.219,3.219 0 0 1 -1,-0.673 3.14,3.14 0 0 1 -0.676,-1 3.132,3.132 0 0 1 -0.247,-1.243 m 1.759,0 a 1.784,1.784 0 0 0 0.1,0.6 1.447,1.447 0 0 0 0.279,0.482 1.262,1.262 0 0 0 0.441,0.323 1.4,1.4 0 0 0 0.579,0.116 1.343,1.343 0 0 0 0.566,-0.116 1.22,1.22 0 0 0 0.429,-0.323 1.459,1.459 0 0 0 0.269,-0.482 1.833,1.833 0 0 0 0.094,-0.6 1.817,1.817 0 0 0 -0.094,-0.585 1.531,1.531 0 0 0 -0.269,-0.491 1.26,1.26 0 0 0 -0.429,-0.335 1.289,1.289 0 0 0 -0.566,-0.122 1.346,1.346 0 0 0 -0.579,0.118 1.3,1.3 0 0 0 -0.441,0.335 1.518,1.518 0 0 0 -0.279,0.491 1.768,1.768 0 0 0 -0.1,0.585" transform="translate(276.473,-41.837)" fill="#ffffff" style="stroke-width:1.03609"></path>
        <path id="Tracciato_3" data-name="Tracciato 3" d="m -249.893,73.589 a 0.235,0.235 0 0 1 0.181,0.084 0.716,0.716 0 0 1 0.125,0.207 1.554,1.554 0 0 1 0.081,0.263 c 0.021,0.094 0.038,0.176 0.05,0.247 a 3.208,3.208 0 0 1 0.3,-0.31 2.194,2.194 0 0 1 0.382,-0.275 2.162,2.162 0 0 1 0.47,-0.2 1.974,1.974 0 0 1 0.557,-0.075 2.238,2.238 0 0 1 0.6,0.078 2.352,2.352 0 0 1 0.516,0.21 2.087,2.087 0 0 1 0.419,0.307 1.94,1.94 0 0 1 0.31,0.376 2.312,2.312 0 0 1 0.36,-0.4 2.569,2.569 0 0 1 0.46,-0.323 2.4,2.4 0 0 1 0.526,-0.213 2.105,2.105 0 0 1 0.556,-0.065 2.617,2.617 0 0 1 1.083,0.2 2.01,2.01 0 0 1 0.739,0.553 2.323,2.323 0 0 1 0.429,0.83 4.11,4.11 0 0 1 0.16,1.023 c 0,0.1 0.006,0.188 0.006,0.278 v 2.983 a 0.345,0.345 0 0 1 -0.109,0.272 0.4,0.4 0 0 1 -0.272,0.1 h -0.945 q -0.4,0 -0.4,-0.357 v -3.12 a 1.863,1.863 0 0 0 -0.05,-0.438 1.035,1.035 0 0 0 -0.157,-0.356 0.778,0.778 0 0 0 -0.269,-0.238 0.811,0.811 0 0 0 -0.388,-0.088 1.232,1.232 0 0 0 -0.442,0.084 1.37,1.37 0 0 0 -0.4,0.235 1.246,1.246 0 0 0 -0.291,0.354 0.882,0.882 0 0 0 -0.113,0.435 v 3.124 a 0.347,0.347 0 0 1 -0.1,0.269 0.382,0.382 0 0 1 -0.266,0.094 h -1.033 a 0.336,0.336 0 0 1 -0.263,-0.091 0.388,0.388 0 0 1 -0.081,-0.266 v -3.175 a 1.116,1.116 0 0 0 -0.256,-0.785 0.914,0.914 0 0 0 -0.707,-0.279 1.143,1.143 0 0 0 -0.426,0.084 1.32,1.32 0 0 0 -0.382,0.231 1.213,1.213 0 0 0 -0.275,0.345 0.884,0.884 0 0 0 -0.107,0.429 v 3.17 a 0.336,0.336 0 0 1 -0.088,0.238 0.3,0.3 0 0 1 -0.231,0.094 h -1.071 a 0.345,0.345 0 0 1 -0.269,-0.1 0.352,0.352 0 0 1 -0.088,-0.247 v -5.408 a 0.366,0.366 0 0 1 0.116,-0.278 0.338,0.338 0 0 1 0.229,-0.11 z" transform="translate(267.92,-41.803)" fill="#ffffff" style="stroke-width:1.03609"></path>
        <path id="Tracciato_4" data-name="Tracciato 4" d="m -227.795,68.851 a 0.945,0.945 0 0 1 0.075,-0.376 0.971,0.971 0 0 1 0.207,-0.307 0.964,0.964 0 0 1 0.3,-0.206 0.921,0.921 0 0 1 0.373,-0.075 0.956,0.956 0 0 1 0.382,0.075 0.963,0.963 0 0 1 0.307,0.206 0.932,0.932 0 0 1 0.2,0.307 0.978,0.978 0 0 1 0.072,0.376 0.951,0.951 0 0 1 -0.072,0.372 0.94,0.94 0 0 1 -0.2,0.3 0.97,0.97 0 0 1 -0.307,0.206 0.957,0.957 0 0 1 -0.382,0.075 0.921,0.921 0 0 1 -0.373,-0.075 0.972,0.972 0 0 1 -0.3,-0.206 0.98,0.98 0 0 1 -0.207,-0.3 0.918,0.918 0 0 1 -0.075,-0.372 m 1.809,7.686 q 0,0.294 -0.313,0.294 h -1.046 a 0.26,0.26 0 0 1 -0.294,-0.294 v -5.558 a 0.315,0.315 0 0 1 0.075,-0.213 0.271,0.271 0 0 1 0.219,-0.088 h 1.046 a 0.325,0.325 0 0 1 0.213,0.084 0.271,0.271 0 0 1 0.1,0.216 z" transform="translate(255.868,-38.898)" fill="#ffffff" style="stroke-width:1.03609"></path>
        <path id="Tracciato_5" data-name="Tracciato 5" d="m -216.663,78.2 a 1.012,1.012 0 0 0 0.382,-0.079 1.284,1.284 0 0 0 0.344,-0.2 0.392,0.392 0 0 1 0.194,-0.063 0.189,0.189 0 0 1 0.144,0.081 c 0.038,0.05 0.077,0.106 0.119,0.169 l 0.444,0.67 a 0.459,0.459 0 0 1 0.035,0.072 0.183,0.183 0 0 1 0.015,0.059 0.229,0.229 0 0 1 -0.072,0.178 1.025,1.025 0 0 1 -0.141,0.109 4.369,4.369 0 0 1 -0.9,0.457 2.915,2.915 0 0 1 -1.03,0.182 3.157,3.157 0 0 1 -1.242,-0.247 3.2,3.2 0 0 1 -1.021,-0.679 3.246,3.246 0 0 1 -0.688,-1.011 3.074,3.074 0 0 1 -0.254,-1.249 3.128,3.128 0 0 1 0.254,-1.252 3.263,3.263 0 0 1 0.688,-1.023 3.251,3.251 0 0 1 1.021,-0.688 3.087,3.087 0 0 1 1.242,-0.254 2.872,2.872 0 0 1 0.961,0.16 4.387,4.387 0 0 1 0.9,0.447 h -0.006 a 0.8,0.8 0 0 1 0.165,0.138 0.258,0.258 0 0 1 0.06,0.175 0.283,0.283 0 0 1 -0.013,0.075 0.214,0.214 0 0 1 -0.031,0.069 l -0.482,0.833 0.006,-0.006 a 0.26,0.26 0 0 1 -0.207,0.132 0.437,0.437 0 0 1 -0.2,-0.081 1.928,1.928 0 0 0 -0.529,-0.291 1.752,1.752 0 0 0 -0.617,-0.116 1.539,1.539 0 0 0 -0.642,0.134 1.671,1.671 0 0 0 -0.52,0.366 1.7,1.7 0 0 0 -0.347,0.538 1.71,1.71 0 0 0 -0.125,0.651 1.711,1.711 0 0 0 0.122,0.654 1.539,1.539 0 0 0 0.335,0.511 1.483,1.483 0 0 0 0.5,0.329 1.689,1.689 0 0 0 0.629,0.116 2.064,2.064 0 0 0 0.254,-0.016 1.627,1.627 0 0 0 0.241,-0.047" transform="translate(252.003,-41.77)" fill="#ffffff" style="stroke-width:1.03609"></path>
        <path id="Tracciato_6" data-name="Tracciato 6" d="m -203.46,75.358 a 0.448,0.448 0 0 1 -0.231,-0.091 c -0.092,-0.06 -0.2,-0.127 -0.313,-0.2 a 2.872,2.872 0 0 0 -0.389,-0.2 1.171,1.171 0 0 0 -0.463,-0.091 1.481,1.481 0 0 0 -0.394,0.044 0.726,0.726 0 0 0 -0.251,0.116 0.381,0.381 0 0 0 -0.131,0.172 0.6,0.6 0 0 0 -0.038,0.213 0.307,0.307 0 0 0 0.109,0.244 0.993,0.993 0 0 0 0.285,0.163 3.153,3.153 0 0 0 0.391,0.122 c 0.144,0.035 0.287,0.072 0.429,0.109 q 0.413,0.119 0.795,0.256 a 2.87,2.87 0 0 1 0.676,0.345 1.6,1.6 0 0 1 0.472,0.513 1.484,1.484 0 0 1 0.178,0.757 1.761,1.761 0 0 1 -0.2,0.852 1.913,1.913 0 0 1 -0.557,0.635 2.631,2.631 0 0 1 -0.826,0.4 3.608,3.608 0 0 1 -1.011,0.137 3.013,3.013 0 0 1 -0.635,-0.068 3.476,3.476 0 0 1 -0.617,-0.2 3.054,3.054 0 0 1 -0.57,-0.32 2.765,2.765 0 0 1 -0.482,-0.435 0.408,0.408 0 0 1 -0.112,-0.263 0.346,0.346 0 0 1 0.119,-0.244 l 0.551,-0.532 a 0.283,0.283 0 0 1 0.1,-0.068 0.28,0.28 0 0 1 0.1,-0.019 0.277,0.277 0 0 1 0.163,0.059 1.141,1.141 0 0 1 0.131,0.109 2.494,2.494 0 0 0 0.325,0.244 3.038,3.038 0 0 0 0.332,0.182 1.814,1.814 0 0 0 0.313,0.112 1.1,1.1 0 0 0 0.263,0.038 1.433,1.433 0 0 0 0.767,-0.169 0.513,0.513 0 0 0 0.266,-0.451 0.333,0.333 0 0 0 -0.091,-0.235 0.838,0.838 0 0 0 -0.247,-0.172 2.483,2.483 0 0 0 -0.369,-0.137 c -0.142,-0.041 -0.294,-0.086 -0.457,-0.132 a 5.853,5.853 0 0 1 -0.98,-0.338 2.649,2.649 0 0 1 -0.663,-0.423 1.46,1.46 0 0 1 -0.379,-0.519 1.622,1.622 0 0 1 -0.119,-0.629 1.578,1.578 0 0 1 0.175,-0.742 1.71,1.71 0 0 1 0.492,-0.573 2.381,2.381 0 0 1 0.751,-0.369 3.322,3.322 0 0 1 0.961,-0.132 3.418,3.418 0 0 1 1.129,0.191 2.649,2.649 0 0 1 0.98,0.611 l 0.019,0.025 a 0.948,0.948 0 0 1 0.081,0.109 0.219,0.219 0 0 1 0.038,0.116 0.342,0.342 0 0 1 -0.131,0.25 c -0.063,0.058 -0.129,0.123 -0.2,0.194 -0.071,0.071 -0.135,0.139 -0.2,0.2 a 1.763,1.763 0 0 1 -0.185,0.162 0.271,0.271 0 0 1 -0.15,0.066" transform="translate(245.278,-41.769)" fill="#ffffff" style="stroke-width:1.03609"></path>
        <path id="Tracciato_7" data-name="Tracciato 7" d="m -184.561,72.186 a 2.283,2.283 0 0 1 -0.3,0.754 2.407,2.407 0 0 1 -0.517,0.586 2.3,2.3 0 0 1 -0.673,0.378 2.257,2.257 0 0 1 -0.773,0.135 1.565,1.565 0 0 1 -0.219,-0.015 c -0.075,-0.01 -0.142,-0.022 -0.2,-0.034 l -0.513,-0.113 a 3,3 0 0 1 -0.391,1.261 2.537,2.537 0 0 1 -0.767,0.8 3.042,3.042 0 0 1 -1.02,0.425 5.27,5.27 0 0 1 -1.152,0.125 3.62,3.62 0 0 1 -1.258,-0.219 3.326,3.326 0 0 1 -1.042,-0.607 2.881,2.881 0 0 1 -0.711,-0.929 2.683,2.683 0 0 1 -0.263,-1.186 3.165,3.165 0 0 1 0.1,-0.811 2.618,2.618 0 0 1 0.272,-0.664 2.555,2.555 0 0 1 0.419,-0.535 3.36,3.36 0 0 1 0.538,-0.426 2.152,2.152 0 0 1 -0.513,-0.714 2.282,2.282 0 0 1 -0.181,-0.939 2.251,2.251 0 0 1 0.213,-0.976 2.5,2.5 0 0 1 0.569,-0.78 2.675,2.675 0 0 1 0.826,-0.516 2.636,2.636 0 0 1 0.989,-0.188 3.3,3.3 0 0 1 0.98,0.144 2.28,2.28 0 0 1 0.823,0.451 2.174,2.174 0 0 1 0.566,0.776 2.716,2.716 0 0 1 0.21,1.114 0.333,0.333 0 0 1 -0.094,0.26 0.349,0.349 0 0 1 -0.244,0.084 h -0.432 c -0.038,0 -0.075,0 -0.113,0 h -0.113 -0.225 a 0.357,0.357 0 0 1 -0.247,-0.081 0.3,0.3 0 0 1 -0.091,-0.238 0.98,0.98 0 0 0 -0.231,-0.682 0.923,0.923 0 0 0 -0.72,-0.257 1.062,1.062 0 0 0 -0.463,0.091 0.914,0.914 0 0 0 -0.307,0.232 0.843,0.843 0 0 0 -0.169,0.313 1.221,1.221 0 0 0 -0.05,0.341 0.917,0.917 0 0 0 0.05,0.26 1.119,1.119 0 0 0 0.162,0.316 1.251,1.251 0 0 0 0.291,0.285 0.979,0.979 0 0 0 0.435,0.166 q 0.294,0.044 0.294,0.3 v 0.025 a 0.07,0.07 0 0 1 0,0.019 0.145,0.145 0 0 0 0,0.031 l -0.163,0.8 a 0.3,0.3 0 0 1 -0.1,0.219 0.341,0.341 0 0 1 -0.21,0.063 1.556,1.556 0 0 0 -0.589,0.1 1.05,1.05 0 0 0 -0.4,0.279 1.1,1.1 0 0 0 -0.229,0.419 1.81,1.81 0 0 0 -0.072,0.523 1.526,1.526 0 0 0 0.1,0.551 1.364,1.364 0 0 0 0.307,0.475 1.541,1.541 0 0 0 0.494,0.332 1.677,1.677 0 0 0 0.667,0.125 1.879,1.879 0 0 0 0.56,-0.084 1.508,1.508 0 0 0 0.488,-0.254 1.359,1.359 0 0 0 0.354,-0.419 1.413,1.413 0 0 0 0.162,-0.582 l -0.688,-0.175 a 0.358,0.358 0 0 1 -0.2,-0.119 0.307,0.307 0 0 1 -0.072,-0.2 1,1 0 0 1 0.05,-0.3 2.349,2.349 0 0 0 0.075,-0.31 l 0.081,-0.357 a 0.436,0.436 0 0 1 0.113,-0.206 0.281,0.281 0 0 1 0.207,-0.081 h 0.05 a 0.153,0.153 0 0 1 0.044,0.009 h -0.007 l 2.792,0.613 a 0.57,0.57 0 0 0 0.144,0.019 0.7,0.7 0 0 0 0.463,-0.169 0.913,0.913 0 0 0 0.282,-0.407 0.282,0.282 0 0 1 0.1,-0.194 0.322,0.322 0 0 1 0.21,-0.075 0.722,0.722 0 0 1 0.231,0.038 0.674,0.674 0 0 0 0.207,0.037 l 0.532,0.119 a 0.286,0.286 0 0 1 0.206,0.122 0.378,0.378 0 0 1 0.081,0.229 0.429,0.429 0 0 1 0,0.05 0.272,0.272 0 0 1 -0.01,0.038" transform="translate(238.553,-38.441)" fill="#ffffff" style="stroke-width:1.03609"></path>
        <path id="Tracciato_8" data-name="Tracciato 8" d="m -166.121,72.427 a 0.284,0.284 0 0 1 0.069,-0.2 0.265,0.265 0 0 1 0.206,-0.075 h 1.021 a 0.315,0.315 0 0 1 0.2,0.075 0.244,0.244 0 0 1 0.094,0.2 V 75.3 a 0.3,0.3 0 0 1 -0.038,0.144 0.379,0.379 0 0 1 -0.138,0.132 c 0,0 -0.006,0 -0.006,0 0,0 0,0 -0.006,0 a 4.52,4.52 0 0 1 -0.632,0.369 4.76,4.76 0 0 1 -0.707,0.272 5.726,5.726 0 0 1 -0.757,0.169 5.076,5.076 0 0 1 -0.776,0.06 4.759,4.759 0 0 1 -1.271,-0.169 4.667,4.667 0 0 1 -1.143,-0.482 4.845,4.845 0 0 1 -0.964,-0.748 4.833,4.833 0 0 1 -0.748,-0.964 4.675,4.675 0 0 1 -0.482,-1.139 4.767,4.767 0 0 1 -0.169,-1.274 4.737,4.737 0 0 1 0.169,-1.267 4.731,4.731 0 0 1 0.482,-1.143 4.886,4.886 0 0 1 0.748,-0.97 4.746,4.746 0 0 1 0.967,-0.752 4.825,4.825 0 0 1 1.143,-0.485 4.668,4.668 0 0 1 1.273,-0.172 5.08,5.08 0 0 1 0.886,0.078 4.752,4.752 0 0 1 0.854,0.235 c 0.1,0.042 0.229,0.094 0.373,0.156 a 3.922,3.922 0 0 1 0.41,0.207 2.1,2.1 0 0 1 0.329,0.232 0.325,0.325 0 0 1 0.135,0.231 0.235,0.235 0 0 1 -0.044,0.138 q -0.163,0.238 -0.322,0.479 -0.159,0.241 -0.323,0.479 a 0.262,0.262 0 0 1 -0.213,0.137 0.326,0.326 0 0 1 -0.091,-0.016 0.324,0.324 0 0 1 -0.109,-0.059 3.4,3.4 0 0 0 -0.889,-0.438 3.2,3.2 0 0 0 -1.008,-0.162 2.96,2.96 0 0 0 -1.227,0.25 2.965,2.965 0 0 0 -0.958,0.676 3.134,3.134 0 0 0 -0.626,0.986 3.127,3.127 0 0 0 -0.225,1.18 3,3 0 0 0 0.241,1.2 3.159,3.159 0 0 0 0.651,0.977 3.046,3.046 0 0 0 0.961,0.657 2.89,2.89 0 0 0 1.17,0.241 3.052,3.052 0 0 0 0.457,-0.034 3.755,3.755 0 0 0 0.423,-0.088 2.727,2.727 0 0 0 0.353,-0.119 1.863,1.863 0 0 0 0.257,-0.128 z" transform="translate(227.162,-38.381)" fill="#ffffff" style="stroke-width:1.03609"></path>
        <path id="Tracciato_9" data-name="Tracciato 9" d="m -152.195,75.164 a 0.56,0.56 0 0 0 -0.1,0.038 0.312,0.312 0 0 1 -0.132,0.031 0.164,0.164 0 0 1 -0.122,-0.069 1.272,1.272 0 0 1 -0.1,-0.125 l -0.382,-0.538 a 0.259,0.259 0 0 1 -0.068,-0.144 0.236,0.236 0 0 1 0.047,-0.16 1.057,1.057 0 0 1 0.134,-0.122 q 0.244,-0.182 0.5,-0.335 a 3.284,3.284 0 0 1 0.544,-0.263 3.559,3.559 0 0 1 0.632,-0.169 4.38,4.38 0 0 1 0.748,-0.059 3.367,3.367 0 0 1 0.961,0.141 2.649,2.649 0 0 1 0.848,0.426 2.348,2.348 0 0 1 0.623,0.717 2.318,2.318 0 0 1 0.285,1.021 c 0,0.071 0.009,0.144 0.013,0.219 0.004,0.075 0.006,0.15 0.006,0.226 v 3.361 a 0.228,0.228 0 0 1 -0.078,0.185 0.306,0.306 0 0 1 -0.2,0.066 h -0.851 a 0.319,0.319 0 0 1 -0.2,-0.047 0.423,0.423 0 0 1 -0.091,-0.21 l -0.056,-0.545 a 1.589,1.589 0 0 1 -0.3,0.385 1.869,1.869 0 0 1 -0.41,0.295 2.108,2.108 0 0 1 -0.494,0.188 2.3,2.3 0 0 1 -0.554,0.066 2.82,2.82 0 0 1 -1,-0.166 2.181,2.181 0 0 1 -0.739,-0.451 1.858,1.858 0 0 1 -0.454,-0.673 2.264,2.264 0 0 1 -0.153,-0.839 1.521,1.521 0 0 1 0.169,-0.717 1.667,1.667 0 0 1 0.466,-0.551 2.243,2.243 0 0 1 0.695,-0.354 2.813,2.813 0 0 1 0.848,-0.125 h 0.213 q 0.393,0 0.792,0 h 0.8 v -0.2 q 0,-1.026 -1.277,-1.026 a 1.859,1.859 0 0 0 -0.35,0.038 3.006,3.006 0 0 0 -0.391,0.1 2.709,2.709 0 0 0 -0.376,0.157 1.764,1.764 0 0 0 -0.3,0.19 0.332,0.332 0 0 1 -0.132,0.044 m 1.421,1.828 a 1.206,1.206 0 0 0 -0.729,0.172 0.535,0.535 0 0 0 -0.222,0.441 0.973,0.973 0 0 0 0.041,0.282 0.607,0.607 0 0 0 0.144,0.247 0.743,0.743 0 0 0 0.282,0.178 1.284,1.284 0 0 0 0.46,0.069 2.733,2.733 0 0 0 0.56,-0.056 1.176,1.176 0 0 0 0.47,-0.21 1.039,1.039 0 0 0 0.322,-0.422 1.747,1.747 0 0 0 0.119,-0.7 z" transform="translate(217.31,-41.676)" fill="#ffffff" style="stroke-width:1.03609"></path>
        <path id="Tracciato_10" data-name="Tracciato 10" d="m -136.725,73.589 a 0.235,0.235 0 0 1 0.181,0.084 0.715,0.715 0 0 1 0.125,0.207 1.6,1.6 0 0 1 0.081,0.263 c 0.021,0.094 0.038,0.176 0.05,0.247 a 3.212,3.212 0 0 1 0.3,-0.31 2.2,2.2 0 0 1 0.382,-0.275 2.162,2.162 0 0 1 0.47,-0.2 1.974,1.974 0 0 1 0.557,-0.075 2.241,2.241 0 0 1 0.6,0.078 2.362,2.362 0 0 1 0.516,0.21 2.1,2.1 0 0 1 0.419,0.307 1.942,1.942 0 0 1 0.31,0.376 2.294,2.294 0 0 1 0.36,-0.4 2.571,2.571 0 0 1 0.46,-0.323 2.4,2.4 0 0 1 0.526,-0.213 2.1,2.1 0 0 1 0.557,-0.075 2.613,2.613 0 0 1 1.083,0.2 2.006,2.006 0 0 1 0.739,0.553 2.308,2.308 0 0 1 0.429,0.83 4.132,4.132 0 0 1 0.16,1.023 c 0,0.1 0.006,0.188 0.006,0.278 v 2.983 a 0.345,0.345 0 0 1 -0.109,0.272 0.4,0.4 0 0 1 -0.272,0.1 h -0.945 q -0.4,0 -0.4,-0.357 v -3.11 a 1.837,1.837 0 0 0 -0.051,-0.438 1.035,1.035 0 0 0 -0.156,-0.356 0.78,0.78 0 0 0 -0.269,-0.238 0.808,0.808 0 0 0 -0.388,-0.088 1.232,1.232 0 0 0 -0.442,0.084 1.371,1.371 0 0 0 -0.4,0.235 1.257,1.257 0 0 0 -0.292,0.354 0.887,0.887 0 0 0 -0.112,0.435 v 3.124 a 0.347,0.347 0 0 1 -0.1,0.269 0.383,0.383 0 0 1 -0.266,0.094 h -1.033 a 0.336,0.336 0 0 1 -0.263,-0.091 0.386,0.386 0 0 1 -0.081,-0.266 v -3.175 a 1.114,1.114 0 0 0 -0.257,-0.785 0.913,0.913 0 0 0 -0.707,-0.279 1.143,1.143 0 0 0 -0.426,0.084 1.313,1.313 0 0 0 -0.382,0.231 1.223,1.223 0 0 0 -0.276,0.345 0.889,0.889 0 0 0 -0.107,0.429 v 3.17 a 0.336,0.336 0 0 1 -0.087,0.238 0.3,0.3 0 0 1 -0.232,0.094 h -1.07 a 0.347,0.347 0 0 1 -0.269,-0.1 0.354,0.354 0 0 1 -0.087,-0.247 v -5.408 a 0.366,0.366 0 0 1 0.116,-0.278 0.338,0.338 0 0 1 0.229,-0.11 z" transform="translate(209.308,-41.803)" fill="#ffffff" style="stroke-width:1.03609"></path>
        <path id="Tracciato_11" data-name="Tracciato 11" d="m -112.2,78.476 a 1.763,1.763 0 0 0 0.573,-0.084 3.069,3.069 0 0 0 0.548,-0.235 1.4,1.4 0 0 0 0.2,-0.125 0.285,0.285 0 0 1 0.166,-0.069 0.264,0.264 0 0 1 0.206,0.119 l 0.439,0.651 a 0.329,0.329 0 0 1 0.056,0.163 0.247,0.247 0 0 1 -0.063,0.166 1.172,1.172 0 0 1 -0.138,0.135 2.8,2.8 0 0 1 -0.432,0.272 3.323,3.323 0 0 1 -0.5,0.206 3.807,3.807 0 0 1 -0.532,0.132 3.145,3.145 0 0 1 -0.536,0.047 2.949,2.949 0 0 1 -1.217,-0.25 3.036,3.036 0 0 1 -0.974,-0.686 3.183,3.183 0 0 1 -0.647,-1.02 3.335,3.335 0 0 1 -0.235,-1.255 3.344,3.344 0 0 1 0.229,-1.23 3.22,3.22 0 0 1 0.632,-1.023 3.076,3.076 0 0 1 0.952,-0.7 2.732,2.732 0 0 1 1.186,-0.259 2.916,2.916 0 0 1 1.139,0.225 3.01,3.01 0 0 1 0.94,0.613 2.938,2.938 0 0 1 0.635,0.908 2.659,2.659 0 0 1 0.235,1.108 c 0,0.029 0,0.056 0,0.081 0,0.025 0,0.05 0,0.075 a 0.946,0.946 0 0 1 -0.06,0.366 0.526,0.526 0 0 1 -0.175,0.225 0.691,0.691 0 0 1 -0.282,0.116 2.076,2.076 0 0 1 -0.373,0.031 h -3.48 a 1.237,1.237 0 0 0 0.178,0.526 1.612,1.612 0 0 0 0.36,0.41 1.637,1.637 0 0 0 0.47,0.266 1.463,1.463 0 0 0 0.507,0.094 m 1.358,-2.441 a 1.191,1.191 0 0 0 -0.125,-0.476 1.283,1.283 0 0 0 -0.307,-0.394 1.485,1.485 0 0 0 -0.451,-0.266 1.556,1.556 0 0 0 -0.557,-0.1 1.3,1.3 0 0 0 -0.488,0.1 1.581,1.581 0 0 0 -0.442,0.263 1.546,1.546 0 0 0 -0.332,0.391 1.232,1.232 0 0 0 -0.165,0.482 z" transform="translate(197.6,-41.77)" fill="#ffffff" style="stroke-width:1.03609"></path>
        <path id="Tracciato_12" data-name="Tracciato 12" d="M -97.77,75.358 A 0.448,0.448 0 0 1 -98,75.267 c -0.092,-0.06 -0.2,-0.127 -0.313,-0.2 a 2.866,2.866 0 0 0 -0.388,-0.2 1.171,1.171 0 0 0 -0.463,-0.091 1.485,1.485 0 0 0 -0.394,0.044 0.721,0.721 0 0 0 -0.25,0.116 0.39,0.39 0 0 0 -0.132,0.172 0.6,0.6 0 0 0 -0.037,0.213 0.306,0.306 0 0 0 0.109,0.244 1,1 0 0 0 0.284,0.163 3.163,3.163 0 0 0 0.391,0.122 q 0.216,0.053 0.429,0.109 0.413,0.119 0.794,0.256 a 2.852,2.852 0 0 1 0.676,0.345 1.6,1.6 0 0 1 0.473,0.513 1.484,1.484 0 0 1 0.178,0.757 1.762,1.762 0 0 1 -0.2,0.852 1.907,1.907 0 0 1 -0.557,0.635 2.631,2.631 0 0 1 -0.826,0.4 3.609,3.609 0 0 1 -1.011,0.137 3.008,3.008 0 0 1 -0.635,-0.068 3.463,3.463 0 0 1 -0.617,-0.2 3.069,3.069 0 0 1 -0.57,-0.32 2.744,2.744 0 0 1 -0.482,-0.435 0.406,0.406 0 0 1 -0.113,-0.263 0.346,0.346 0 0 1 0.119,-0.244 l 0.551,-0.532 a 0.285,0.285 0 0 1 0.1,-0.068 0.284,0.284 0 0 1 0.1,-0.019 0.275,0.275 0 0 1 0.162,0.059 1.2,1.2 0 0 1 0.132,0.109 2.493,2.493 0 0 0 0.325,0.244 3.042,3.042 0 0 0 0.332,0.182 1.81,1.81 0 0 0 0.313,0.112 1.1,1.1 0 0 0 0.263,0.038 1.433,1.433 0 0 0 0.767,-0.169 0.513,0.513 0 0 0 0.267,-0.451 0.332,0.332 0 0 0 -0.092,-0.235 0.828,0.828 0 0 0 -0.247,-0.172 2.483,2.483 0 0 0 -0.369,-0.137 c -0.142,-0.041 -0.294,-0.086 -0.457,-0.132 a 5.838,5.838 0 0 1 -0.98,-0.338 2.649,2.649 0 0 1 -0.663,-0.423 1.454,1.454 0 0 1 -0.379,-0.519 1.613,1.613 0 0 1 -0.119,-0.629 1.573,1.573 0 0 1 0.175,-0.742 1.709,1.709 0 0 1 0.491,-0.573 2.39,2.39 0 0 1 0.752,-0.369 3.322,3.322 0 0 1 0.961,-0.132 3.423,3.423 0 0 1 1.13,0.191 2.652,2.652 0 0 1 0.979,0.611 l 0.019,0.025 a 0.945,0.945 0 0 1 0.081,0.109 0.219,0.219 0 0 1 0.038,0.116 0.342,0.342 0 0 1 -0.131,0.25 c -0.063,0.058 -0.129,0.123 -0.2,0.194 -0.071,0.071 -0.135,0.139 -0.2,0.2 a 1.712,1.712 0 0 1 -0.184,0.162 0.27,0.27 0 0 1 -0.15,0.066" transform="translate(190.539,-41.769)" fill="#ffffff" style="stroke-width:1.03609"></path>
        <path id="Tracciato_19" data-name="Tracciato 19" d="m -186.456,41.648 a 8.336,8.336 0 0 0 1.36,-1.064 c 0.139,-0.139 0.214,-0.276 0.185,-0.381 a 0.579,0.579 0 0 0 -0.1,-0.193 l -0.609,-0.872 a 0.314,0.314 0 0 0 -0.157,-0.121 0.461,0.461 0 0 0 -0.437,0.1 8.29,8.29 0 0 1 -2.44,1.526 6.765,6.765 0 0 1 -2.509,0.532 7.759,7.759 0 0 1 -2.71,-0.514 6.818,6.818 0 0 1 -2.247,-1.413 6.813,6.813 0 0 1 -1.543,-2.2 6.983,6.983 0 0 1 -0.575,-2.876 6.668,6.668 0 0 1 0.575,-2.8 6.894,6.894 0 0 1 1.543,-2.178 6.911,6.911 0 0 1 2.257,-1.421 7.4,7.4 0 0 1 2.718,-0.505 6.123,6.123 0 0 1 1.481,0.174 7.424,7.424 0 0 1 1.308,0.455 7.773,7.773 0 0 1 1.14,0.635 11.336,11.336 0 0 1 0.984,0.74 0.52,0.52 0 0 0 0.323,0.132 0.326,0.326 0 0 0 0.269,-0.132 l 0.681,-0.749 a 0.438,0.438 0 0 0 0.113,-0.349 0.5,0.5 0 0 0 -0.2,-0.313 q -0.538,-0.437 -1.221,-0.888 a 10.918,10.918 0 0 0 -1.463,-0.821 9.8,9.8 0 0 0 -1.646,-0.592 6.9,6.9 0 0 0 -1.752,-0.226 8.988,8.988 0 0 0 -3.519,0.688 9.01,9.01 0 0 0 -2.849,1.875 8.747,8.747 0 0 0 -1.918,2.8 8.6,8.6 0 0 0 -0.705,3.467 8.485,8.485 0 0 0 0.34,2.422 8.836,8.836 0 0 0 0.941,2.135 8.8,8.8 0 0 0 1.428,1.778 9.307,9.307 0 0 0 1.814,1.359 9.185,9.185 0 0 0 2.091,0.881 8.77,8.77 0 0 0 2.255,0.332 7.391,7.391 0 0 0 1.6,-0.148 9.56,9.56 0 0 0 1.639,-0.488 9.752,9.752 0 0 0 1.559,-0.793" transform="translate(241.534,-16.861)" fill="#ffffff" style="stroke-width:1.03609"></path>
        <path id="Tracciato_20" data-name="Tracciato 20" d="m -270.189,31.664 h -13.836 V 8.365 a 0.74,0.74 0 0 0 -0.122,-0.445 0.486,0.486 0 0 0 -0.418,-0.165 h -0.924 a 0.5,0.5 0 0 0 -0.4,0.165 0.665,0.665 0 0 0 -0.139,0.445 v 24.729 a 0.485,0.485 0 0 0 0.54,0.558 h 15.3 a 0.7,0.7 0 0 0 0.453,-0.141 0.521,0.521 0 0 0 0.175,-0.434 v -0.89 a 0.453,0.453 0 0 0 -0.175,-0.409 0.813,0.813 0 0 0 -0.453,-0.113" transform="translate(286.029,-7.755)" fill="#ffffff" style="stroke-width:1.03609"></path>
        <path id="Tracciato_21" data-name="Tracciato 21" d="m -229.874,42.5 a 0.868,0.868 0 0 0 0.174,0.453 0.571,0.571 0 0 0 0.47,0.175 h 0.575 a 0.687,0.687 0 0 0 0.479,-0.166 0.591,0.591 0 0 0 0.183,-0.462 V 26.691 q 0,-0.645 -0.679,-0.645 h -0.715 a 0.57,0.57 0 0 0 -0.645,0.645 V 36.4 a 4.77,4.77 0 0 1 -0.428,2.013 5.283,5.283 0 0 1 -1.141,1.62 5.353,5.353 0 0 1 -1.672,1.09 5.2,5.2 0 0 1 -2.022,0.4 5.3,5.3 0 0 1 -2.04,-0.392 5.232,5.232 0 0 1 -1.671,-1.079 5.333,5.333 0 0 1 -1.143,-1.612 4.735,4.735 0 0 1 -0.427,-2 v -9.697 a 0.814,0.814 0 0 0 -0.139,-0.522 0.61,0.61 0 0 0 -0.505,-0.175 h -0.7 a 0.7,0.7 0 0 0 -0.506,0.183 0.7,0.7 0 0 0 -0.19,0.531 v 9.586 a 6.98,6.98 0 0 0 0.565,2.806 7.375,7.375 0 0 0 1.534,2.283 7.047,7.047 0 0 0 2.273,1.533 7.03,7.03 0 0 0 2.788,0.559 5.987,5.987 0 0 0 1.691,-0.236 6.38,6.38 0 0 0 1.483,-0.645 6.725,6.725 0 0 0 1.245,-0.968 7.436,7.436 0 0 0 1,-1.22 z" transform="translate(263.543,-17.228)" fill="#ffffff" style="stroke-width:1.03609"></path>
        <path id="Tracciato_22" data-name="Tracciato 22" d="m -146.975,40.033 -0.607,-0.872 a 0.331,0.331 0 0 0 -0.158,-0.121 0.458,0.458 0 0 0 -0.436,0.1 8.292,8.292 0 0 1 -2.44,1.525 6.753,6.753 0 0 1 -2.509,0.531 7.73,7.73 0 0 1 -2.709,-0.514 6.8,6.8 0 0 1 -2.247,-1.412 6.763,6.763 0 0 1 -1.544,-2.2 6.971,6.971 0 0 1 -0.575,-2.87 6.651,6.651 0 0 1 0.575,-2.8 6.828,6.828 0 0 1 1.544,-2.179 6.9,6.9 0 0 1 2.256,-1.421 7.384,7.384 0 0 1 2.718,-0.506 6.086,6.086 0 0 1 1.48,0.175 7.4,7.4 0 0 1 1.309,0.455 7.776,7.776 0 0 1 1.14,0.636 11.12,11.12 0 0 1 0.984,0.74 0.519,0.519 0 0 0 0.324,0.131 0.33,0.33 0 0 0 0.269,-0.131 l 0.681,-0.749 a 0.44,0.44 0 0 0 0.113,-0.349 0.5,0.5 0 0 0 -0.2,-0.313 q -0.539,-0.437 -1.221,-0.888 a 10.858,10.858 0 0 0 -1.463,-0.82 9.721,9.721 0 0 0 -1.645,-0.592 6.882,6.882 0 0 0 -1.753,-0.227 9,9 0 0 0 -3.52,0.688 9.046,9.046 0 0 0 -2.849,1.875 8.742,8.742 0 0 0 -1.917,2.8 8.6,8.6 0 0 0 -0.707,3.468 8.471,8.471 0 0 0 0.34,2.422 8.818,8.818 0 0 0 0.941,2.135 8.752,8.752 0 0 0 1.427,1.778 9.375,9.375 0 0 0 1.814,1.359 9.259,9.259 0 0 0 2.091,0.881 8.794,8.794 0 0 0 2.256,0.331 7.369,7.369 0 0 0 1.6,-0.148 9.388,9.388 0 0 0 1.639,-0.487 9.754,9.754 0 0 0 1.559,-0.793 8.188,8.188 0 0 0 1.359,-1.064 c 0.14,-0.138 0.214,-0.276 0.185,-0.381 a 0.563,0.563 0 0 0 -0.1,-0.193" transform="translate(221.835,-16.873)" fill="#ffffff" style="stroke-width:1.03609"></path>
        <path id="Tracciato_23" data-name="Tracciato 23" d="m -106.792,31.823 c -0.01,-0.279 -0.028,-0.557 -0.053,-0.837 a 6.518,6.518 0 0 0 -0.7,-2.674 5.934,5.934 0 0 0 -1.516,-1.857 6.132,6.132 0 0 0 -2.066,-1.081 8.221,8.221 0 0 0 -2.389,-0.347 8.783,8.783 0 0 0 -3.153,0.565 13.066,13.066 0 0 0 -2.789,1.474 0.7,0.7 0 0 0 -0.175,0.195 0.558,0.558 0 0 0 -0.124,0.32 0.357,0.357 0 0 0 0.129,0.313 l 0.639,0.739 a 0.551,0.551 0 0 0 0.276,0.139 0.553,0.553 0 0 0 0.265,-0.094 l 0.287,-0.184 c 0.1,-0.064 0.188,-0.125 0.271,-0.184 0.083,-0.059 0.269,-0.176 0.315,-0.2 a 9.067,9.067 0 0 1 1.837,-0.8 7.491,7.491 0 0 1 2.293,-0.332 5.211,5.211 0 0 1 2.072,0.384 4.112,4.112 0 0 1 1.473,1.038 4.355,4.355 0 0 1 0.881,1.534 5.877,5.877 0 0 1 0.3,1.89 v 0.819 h -6.013 a 9.237,9.237 0 0 0 -2.936,0.409 5.807,5.807 0 0 0 -1.977,1.079 4.118,4.118 0 0 0 -1.124,1.543 4.675,4.675 0 0 0 -0.358,1.8 5.964,5.964 0 0 0 0.358,2.039 4.841,4.841 0 0 0 1.115,1.768 5.477,5.477 0 0 0 1.952,1.247 7.777,7.777 0 0 0 2.849,0.471 7.813,7.813 0 0 0 2.222,-0.288 6.042,6.042 0 0 0 1.708,-0.793 5.95,5.95 0 0 0 1.29,-1.184 8.838,8.838 0 0 0 0.95,-1.446 l 0.051,2.787 a 0.455,0.455 0 0 0 0.523,0.506 h 0.838 a 0.447,0.447 0 0 0 0.5,-0.506 v -9.38 c 0,-0.3 -0.006,-0.593 -0.018,-0.872 m -2.362,5.746 a 5.687,5.687 0 0 1 -1.367,2.057 5.22,5.22 0 0 1 -1.962,1.149 7.442,7.442 0 0 1 -2.309,0.357 5.661,5.661 0 0 1 -2.074,-0.33 3.817,3.817 0 0 1 -1.342,-0.845 2.989,2.989 0 0 1 -0.722,-1.159 3.95,3.95 0 0 1 -0.219,-1.271 2.591,2.591 0 0 1 1.116,-2.24 5.822,5.822 0 0 1 3.363,-0.792 q 1.53,0 3.024,-0.01 1.494,-0.01 3.006,-0.009 a 8.231,8.231 0 0 1 -0.515,3.094" transform="translate(200.627,-16.7)" fill="#ffffff" style="stroke-width:1.03609"></path>
      </g>
    </g>
  </g>
</svg>
